<svg width="20" height="21" viewBox="0 0 20 21" fill="none" xmlns="http://www.w3.org/2000/svg">
<path d="M17.3 7.59168C17.3 7.75002 17.2417 7.90835 17.1167 8.03335C16.875 8.27502 16.475 8.27502 16.2333 8.03335L12.0583 3.85835C11.8167 3.61668 11.8167 3.21668 12.0583 2.97502C12.3 2.73335 12.7 2.73335 12.9417 2.97502L17.1167 7.15002C17.2333 7.27502 17.3 7.43335 17.3 7.59168Z" fill="#949D9E"/>
<path d="M13.1167 3.41665V17.5833C13.1167 17.925 12.8334 18.2083 12.4917 18.2083C12.15 18.2083 11.8667 17.925 11.8667 17.5833L11.8667 3.41665C11.8667 3.07498 12.15 2.79165 12.4917 2.79165C12.8334 2.79165 13.1167 3.07498 13.1167 3.41665Z" fill="#949D9E"/>
<path d="M8.13337 17.5833C8.13337 17.7417 8.07503 17.9 7.95003 18.025C7.70837 18.2667 7.30837 18.2667 7.0667 18.025L2.8917 13.85C2.65003 13.6083 2.65003 13.2083 2.8917 12.9667C3.13337 12.725 3.53337 12.725 3.77503 12.9667L7.95003 17.1417C8.0667 17.2583 8.13337 17.425 8.13337 17.5833Z" fill="#949D9E"/>
<path d="M8.1333 3.41665V17.5833C8.1333 17.925 7.84997 18.2083 7.5083 18.2083C7.16663 18.2083 6.8833 17.925 6.8833 17.5833L6.8833 3.41665C6.8833 3.07498 7.16663 2.79165 7.5083 2.79165C7.84997 2.79165 8.1333 3.07498 8.1333 3.41665Z" fill="#949D9E"/>
</svg>
